<svg id="visual" viewBox="0 0 900 900" width="900" height="900" xmlns="http://www.w3.org/2000/svg" xmlns:xlink="http://www.w3.org/1999/xlink" version="1.1"><rect x="0" y="0" width="900" height="900" fill="#ffffff"></rect><defs><linearGradient id="grad1_0" x1="0%" y1="0%" x2="100%" y2="100%"><stop offset="30%" stop-color="#d3b3c5" stop-opacity="1"></stop><stop offset="70%" stop-color="#d3b3c5" stop-opacity="1"></stop></linearGradient></defs><defs><linearGradient id="grad1_1" x1="0%" y1="0%" x2="100%" y2="100%"><stop offset="30%" stop-color="#d3b3c5" stop-opacity="1"></stop><stop offset="70%" stop-color="#dec6d3" stop-opacity="1"></stop></linearGradient></defs><defs><linearGradient id="grad1_2" x1="0%" y1="0%" x2="100%" y2="100%"><stop offset="30%" stop-color="#e9d9e2" stop-opacity="1"></stop><stop offset="70%" stop-color="#dec6d3" stop-opacity="1"></stop></linearGradient></defs><defs><linearGradient id="grad1_3" x1="0%" y1="0%" x2="100%" y2="100%"><stop offset="30%" stop-color="#e9d9e2" stop-opacity="1"></stop><stop offset="70%" stop-color="#f4ecf0" stop-opacity="1"></stop></linearGradient></defs><defs><linearGradient id="grad1_4" x1="0%" y1="0%" x2="100%" y2="100%"><stop offset="30%" stop-color="#ffffff" stop-opacity="1"></stop><stop offset="70%" stop-color="#f4ecf0" stop-opacity="1"></stop></linearGradient></defs><defs><linearGradient id="grad2_0" x1="0%" y1="0%" x2="100%" y2="100%"><stop offset="30%" stop-color="#d3b3c5" stop-opacity="1"></stop><stop offset="70%" stop-color="#d3b3c5" stop-opacity="1"></stop></linearGradient></defs><defs><linearGradient id="grad2_1" x1="0%" y1="0%" x2="100%" y2="100%"><stop offset="30%" stop-color="#dec6d3" stop-opacity="1"></stop><stop offset="70%" stop-color="#d3b3c5" stop-opacity="1"></stop></linearGradient></defs><defs><linearGradient id="grad2_2" x1="0%" y1="0%" x2="100%" y2="100%"><stop offset="30%" stop-color="#dec6d3" stop-opacity="1"></stop><stop offset="70%" stop-color="#e9d9e2" stop-opacity="1"></stop></linearGradient></defs><defs><linearGradient id="grad2_3" x1="0%" y1="0%" x2="100%" y2="100%"><stop offset="30%" stop-color="#f4ecf0" stop-opacity="1"></stop><stop offset="70%" stop-color="#e9d9e2" stop-opacity="1"></stop></linearGradient></defs><defs><linearGradient id="grad2_4" x1="0%" y1="0%" x2="100%" y2="100%"><stop offset="30%" stop-color="#f4ecf0" stop-opacity="1"></stop><stop offset="70%" stop-color="#ffffff" stop-opacity="1"></stop></linearGradient></defs><g transform="translate(900, 0)"><path d="M0 572.8C-74.3 514 -148.7 455.2 -239.5 414.8C-330.3 374.4 -437.7 352.5 -496 286.4C-554.3 220.3 -563.5 110.2 -572.8 0L0 0Z" fill="#faf5f8"></path><path d="M0 458.2C-59.5 411.2 -118.9 364.2 -191.6 331.9C-264.3 299.6 -350.2 282 -396.8 229.1C-443.5 176.2 -450.8 88.1 -458.2 0L0 0Z" fill="#efe2e9"></path><path d="M0 343.7C-44.6 308.4 -89.2 273.1 -143.7 248.9C-198.2 224.7 -262.6 211.5 -297.6 171.8C-332.6 132.2 -338.1 66.1 -343.7 0L0 0Z" fill="#e4cfda"></path><path d="M0 229.1C-29.7 205.6 -59.5 182.1 -95.8 165.9C-132.1 149.8 -175.1 141 -198.4 114.6C-221.7 88.1 -225.4 44.1 -229.1 0L0 0Z" fill="#d9bccc"></path><path d="M0 114.6C-14.9 102.8 -29.7 91 -47.9 83C-66.1 74.9 -87.5 70.5 -99.2 57.3C-110.9 44.1 -112.7 22 -114.6 0L0 0Z" fill="#d3b3c5"></path></g><g transform="translate(0, 900)"><path d="M0 -572.8C99.9 -557.6 199.8 -542.5 286.4 -496C373 -449.6 446.4 -371.9 491.9 -284C537.4 -196.1 555.1 -98.1 572.8 0L0 0Z" fill="#faf5f8"></path><path d="M0 -458.2C79.9 -446.1 159.8 -434 229.1 -396.8C298.4 -359.7 357.1 -297.5 393.5 -227.2C429.9 -156.9 444.1 -78.4 458.2 0L0 0Z" fill="#efe2e9"></path><path d="M0 -343.7C59.9 -334.6 119.9 -325.5 171.8 -297.6C223.8 -269.8 267.8 -223.1 295.1 -170.4C322.5 -117.7 333.1 -58.8 343.7 0L0 0Z" fill="#e4cfda"></path><path d="M0 -229.1C40 -223 79.9 -217 114.6 -198.4C149.2 -179.8 178.6 -148.8 196.8 -113.6C215 -78.4 222 -39.2 229.1 0L0 0Z" fill="#d9bccc"></path><path d="M0 -114.6C20 -111.5 40 -108.5 57.3 -99.2C74.6 -89.9 89.3 -74.4 98.4 -56.8C107.5 -39.2 111 -19.6 114.6 0L0 0Z" fill="#d3b3c5"></path></g></svg>