<svg id="visual" viewBox="0 0 1400 1400" width="1400" height="1400" xmlns="http://www.w3.org/2000/svg" xmlns:xlink="http://www.w3.org/1999/xlink" version="1.1"><rect x="0" y="0" width="1400" height="1400" fill="#fff"></rect><defs><linearGradient id="grad1_0" x1="0%" y1="0%" x2="100%" y2="100%"><stop offset="30%" stop-color="#57b3ff" stop-opacity="1"></stop><stop offset="70%" stop-color="#57b3ff" stop-opacity="1"></stop></linearGradient></defs><defs><linearGradient id="grad1_1" x1="0%" y1="0%" x2="100%" y2="100%"><stop offset="30%" stop-color="#57b3ff" stop-opacity="1"></stop><stop offset="70%" stop-color="#9cccff" stop-opacity="1"></stop></linearGradient></defs><defs><linearGradient id="grad1_2" x1="0%" y1="0%" x2="100%" y2="100%"><stop offset="30%" stop-color="#d0e5ff" stop-opacity="1"></stop><stop offset="70%" stop-color="#9cccff" stop-opacity="1"></stop></linearGradient></defs><defs><linearGradient id="grad1_3" x1="0%" y1="0%" x2="100%" y2="100%"><stop offset="30%" stop-color="#d0e5ff" stop-opacity="1"></stop><stop offset="70%" stop-color="#ffffff" stop-opacity="1"></stop></linearGradient></defs><defs><linearGradient id="grad2_0" x1="0%" y1="0%" x2="100%" y2="100%"><stop offset="30%" stop-color="#57b3ff" stop-opacity="1"></stop><stop offset="70%" stop-color="#57b3ff" stop-opacity="1"></stop></linearGradient></defs><defs><linearGradient id="grad2_1" x1="0%" y1="0%" x2="100%" y2="100%"><stop offset="30%" stop-color="#9cccff" stop-opacity="1"></stop><stop offset="70%" stop-color="#57b3ff" stop-opacity="1"></stop></linearGradient></defs><defs><linearGradient id="grad2_2" x1="0%" y1="0%" x2="100%" y2="100%"><stop offset="30%" stop-color="#9cccff" stop-opacity="1"></stop><stop offset="70%" stop-color="#d0e5ff" stop-opacity="1"></stop></linearGradient></defs><defs><linearGradient id="grad2_3" x1="0%" y1="0%" x2="100%" y2="100%"><stop offset="30%" stop-color="#ffffff" stop-opacity="1"></stop><stop offset="70%" stop-color="#d0e5ff" stop-opacity="1"></stop></linearGradient></defs><g transform="translate(1400, 0)"><path d="M0 940.5C-108.5 882.8 -217.1 825.1 -321.8 777C-426.6 728.8 -527.5 690.2 -625.1 625.1C-722.7 560 -816.9 468.5 -868.9 359.9C-920.9 251.3 -930.7 125.7 -940.5 0L0 0Z" fill="#e8f2ff"></path><path d="M0 705.3C-81.4 662.1 -162.8 618.9 -241.4 582.7C-319.9 546.6 -395.6 517.6 -468.8 468.8C-542 420 -612.6 351.4 -651.6 269.9C-690.6 188.5 -698 94.2 -705.3 0L0 0Z" fill="#b7d8ff"></path><path d="M0 470.2C-54.3 441.4 -108.5 412.6 -160.9 388.5C-213.3 364.4 -263.8 345.1 -312.5 312.5C-361.3 280 -408.4 234.2 -434.4 179.9C-460.4 125.7 -465.3 62.8 -470.2 0L0 0Z" fill="#7dbfff"></path><path d="M0 235.1C-27.1 220.7 -54.3 206.3 -80.5 194.2C-106.6 182.2 -131.9 172.5 -156.3 156.3C-180.7 140 -204.2 117.1 -217.2 90C-230.2 62.8 -232.7 31.4 -235.1 0L0 0Z" fill="#57b3ff"></path></g><g transform="translate(0, 1400)"><path d="M0 -940.5C120.3 -925.2 240.5 -909.9 359.9 -868.9C479.3 -827.8 597.7 -761.1 664 -664C730.2 -566.9 744.2 -439.5 781.6 -323.8C819 -208 879.7 -104 940.5 0L0 0Z" fill="#e8f2ff"></path><path d="M0 -705.3C90.2 -693.9 180.4 -682.4 269.9 -651.6C359.4 -620.9 448.3 -570.8 498 -498C547.7 -425.2 558.2 -329.6 586.2 -242.8C614.2 -156 659.8 -78 705.3 0L0 0Z" fill="#b7d8ff"></path><path d="M0 -470.2C60.1 -462.6 120.3 -454.9 179.9 -434.4C239.6 -413.9 298.9 -380.5 332 -332C365.1 -283.4 372.1 -219.7 390.8 -161.9C409.5 -104 439.9 -52 470.2 0L0 0Z" fill="#7dbfff"></path><path d="M0 -235.1C30.1 -231.3 60.1 -227.5 90 -217.2C119.8 -207 149.4 -190.3 166 -166C182.6 -141.7 186.1 -109.9 195.4 -80.9C204.7 -52 219.9 -26 235.1 0L0 0Z" fill="#57b3ff"></path></g></svg>