<svg id="visual" viewBox="0 0 900 900" width="900" height="900" xmlns="http://www.w3.org/2000/svg" xmlns:xlink="http://www.w3.org/1999/xlink" version="1.1"><rect x="0" y="0" width="900" height="900" fill="#fff"></rect><defs><linearGradient id="grad1_0" x1="0%" y1="0%" x2="100%" y2="100%"><stop offset="30%" stop-color="#df6589" stop-opacity="1"></stop><stop offset="70%" stop-color="#df6589" stop-opacity="1"></stop></linearGradient></defs><defs><linearGradient id="grad1_1" x1="0%" y1="0%" x2="100%" y2="100%"><stop offset="30%" stop-color="#df6589" stop-opacity="1"></stop><stop offset="70%" stop-color="#f4b4c2" stop-opacity="1"></stop></linearGradient></defs><defs><linearGradient id="grad1_2" x1="0%" y1="0%" x2="100%" y2="100%"><stop offset="30%" stop-color="#ffffff" stop-opacity="1"></stop><stop offset="70%" stop-color="#f4b4c2" stop-opacity="1"></stop></linearGradient></defs><defs><linearGradient id="grad2_0" x1="0%" y1="0%" x2="100%" y2="100%"><stop offset="30%" stop-color="#df6589" stop-opacity="1"></stop><stop offset="70%" stop-color="#df6589" stop-opacity="1"></stop></linearGradient></defs><defs><linearGradient id="grad2_1" x1="0%" y1="0%" x2="100%" y2="100%"><stop offset="30%" stop-color="#f4b4c2" stop-opacity="1"></stop><stop offset="70%" stop-color="#df6589" stop-opacity="1"></stop></linearGradient></defs><defs><linearGradient id="grad2_2" x1="0%" y1="0%" x2="100%" y2="100%"><stop offset="30%" stop-color="#f4b4c2" stop-opacity="1"></stop><stop offset="70%" stop-color="#ffffff" stop-opacity="1"></stop></linearGradient></defs><g transform="translate(900, 0)"><path d="M0 540.9C-97.4 528.4 -194.8 515.8 -270.5 468.5C-346.2 421.1 -400.2 338.9 -441.7 255C-483.1 171.1 -512 85.6 -540.9 0L0 0Z" fill="#fbd9e0"></path><path d="M0 360.6C-64.9 352.3 -129.8 343.9 -180.3 312.3C-230.8 280.7 -266.8 225.9 -294.4 170C-322.1 114.1 -341.4 57 -360.6 0L0 0Z" fill="#eb8da5"></path><path d="M0 180.3C-32.5 176.1 -64.9 171.9 -90.2 156.2C-115.4 140.4 -133.4 113 -147.2 85C-161 57 -170.7 28.5 -180.3 0L0 0Z" fill="#df6589"></path></g><g transform="translate(0, 900)"><path d="M0 -540.9C100.2 -530 200.3 -519 270.5 -468.5C340.6 -417.9 380.8 -327.7 420.9 -243C461 -158.3 501 -79.2 540.9 0L0 0Z" fill="#fbd9e0"></path><path d="M0 -360.6C66.8 -353.3 133.5 -346 180.3 -312.3C227.1 -278.6 253.9 -218.5 280.6 -162C307.3 -105.5 334 -52.8 360.6 0L0 0Z" fill="#eb8da5"></path><path d="M0 -180.3C33.4 -176.7 66.8 -173 90.2 -156.2C113.5 -139.3 126.9 -109.2 140.3 -81C153.7 -52.8 167 -26.4 180.3 0L0 0Z" fill="#df6589"></path></g></svg>