<svg xmlns="http://www.w3.org/2000/svg" width="256" height="256" viewBox="0 0 100 100"><rect width="100" height="100" rx="20" fill="#7d2e63"></rect><path d="M63.05 49.95L63.05 49.95Q63.05 38.51 59.36 33.05Q55.67 27.59 49.95 27.59L49.95 27.59Q44.23 27.59 40.59 33.10Q36.95 38.61 36.95 49.95L36.95 49.95Q36.95 61.08 40.33 66.74Q43.71 72.41 49.95 72.41L49.95 72.41Q56.19 72.41 59.62 66.74Q63.05 61.08 63.05 49.95ZM49.95 83.12L49.95 83.12Q44.12 83.12 39.29 81.04Q34.45 78.96 30.97 74.86Q27.48 70.75 25.56 64.51Q23.64 58.27 23.64 49.95L23.64 49.95Q23.64 41.52 25.72 35.28Q27.80 29.04 31.33 24.94Q34.87 20.83 39.65 18.85Q44.44 16.88 49.95 16.88L49.95 16.88Q55.46 16.88 60.24 18.90Q65.03 20.93 68.62 24.99Q72.20 29.04 74.28 35.28Q76.36 41.52 76.36 49.95L76.36 49.95Q76.36 58.27 74.44 64.46Q72.52 70.64 68.98 74.80Q65.44 78.96 60.61 81.04Q55.77 83.12 49.95 83.12Z" fill="#ffffff"></path></svg>